<svg xmlns="http://www.w3.org/2000/svg" width="512" height="512" viewBox="0 0 512 512" role="img" aria-label="Spotipi Photo">
  <title>Spotipi Photo</title>
  <rect width="512" height="512" rx="112.6" fill="#14161a"/>
  <circle cx="56.80" cy="56.80" r="10.62" fill="#f7b8b3"/>
  <circle cx="83.36" cy="56.80" r="10.62" fill="#f7b8b3"/>
  <circle cx="109.92" cy="56.80" r="10.62" fill="#f7b8b3"/>
  <circle cx="136.48" cy="56.80" r="10.62" fill="#f7b8b3"/>
  <circle cx="163.04" cy="56.80" r="10.62" fill="#f7b8b3"/>
  <circle cx="189.60" cy="56.80" r="10.62" fill="#f7b8b3"/>
  <circle cx="216.16" cy="56.80" r="10.62" fill="#f7b8b3"/>
  <circle cx="242.72" cy="56.80" r="10.62" fill="#f7b8b3"/>
  <circle cx="269.28" cy="56.80" r="10.62" fill="#f7b8b3"/>
  <circle cx="295.84" cy="56.80" r="10.62" fill="#f7b8b3"/>
  <circle cx="322.40" cy="56.80" r="10.62" fill="#f7b8b3"/>
  <circle cx="348.96" cy="56.80" r="10.62" fill="#f7b8b3"/>
  <circle cx="375.52" cy="56.80" r="10.62" fill="#f7b8b3"/>
  <circle cx="402.08" cy="56.80" r="10.62" fill="#f7b8b3"/>
  <circle cx="428.64" cy="56.80" r="10.62" fill="#f7b8b3"/>
  <circle cx="455.20" cy="56.80" r="10.62" fill="#f7b8b3"/>
  <circle cx="56.80" cy="83.36" r="10.62" fill="#f7b8b3"/>
  <circle cx="83.36" cy="83.36" r="10.62" fill="#f7b8b3"/>
  <circle cx="109.92" cy="83.36" r="10.62" fill="#f7b8b3"/>
  <circle cx="136.48" cy="83.36" r="10.62" fill="#f7b8b3"/>
  <circle cx="163.04" cy="83.36" r="10.62" fill="#f7b8b3"/>
  <circle cx="189.60" cy="83.36" r="10.62" fill="#f7b8b3"/>
  <circle cx="216.16" cy="83.36" r="10.62" fill="#f7b8b3"/>
  <circle cx="242.72" cy="83.36" r="10.62" fill="#f7b8b3"/>
  <circle cx="269.28" cy="83.36" r="10.62" fill="#f7b8b3"/>
  <circle cx="295.84" cy="83.36" r="10.62" fill="#f7b8b3"/>
  <circle cx="322.40" cy="83.36" r="10.62" fill="#f7b8b3"/>
  <circle cx="348.96" cy="83.36" r="10.62" fill="#f7b8b3"/>
  <circle cx="375.52" cy="83.36" r="10.62" fill="#f7b8b3"/>
  <circle cx="402.08" cy="83.36" r="10.62" fill="#f7b8b3"/>
  <circle cx="428.64" cy="83.36" r="10.62" fill="#f7b8b3"/>
  <circle cx="455.20" cy="83.36" r="10.62" fill="#f7b8b3"/>
  <circle cx="56.80" cy="109.92" r="10.62" fill="#eca3a9"/>
  <circle cx="83.36" cy="109.92" r="10.62" fill="#eca3a9"/>
  <circle cx="109.92" cy="109.92" r="10.62" fill="#eca3a9"/>
  <circle cx="136.48" cy="109.92" r="10.62" fill="#eca3a9"/>
  <circle cx="163.04" cy="109.92" r="10.62" fill="#eca3a9"/>
  <circle cx="189.60" cy="109.92" r="10.62" fill="#eca3a9"/>
  <circle cx="216.16" cy="109.92" r="10.62" fill="#eca3a9"/>
  <circle cx="242.72" cy="109.92" r="10.62" fill="#eca3a9"/>
  <circle cx="269.28" cy="109.92" r="10.62" fill="#eca3a9"/>
  <circle cx="295.84" cy="109.92" r="10.62" fill="#eca3a9"/>
  <circle cx="322.40" cy="109.92" r="10.62" fill="#eca3a9"/>
  <circle cx="348.96" cy="109.92" r="10.62" fill="#eca3a9"/>
  <circle cx="375.52" cy="109.92" r="10.62" fill="#eca3a9"/>
  <circle cx="402.08" cy="109.92" r="10.62" fill="#eca3a9"/>
  <circle cx="428.64" cy="109.92" r="10.62" fill="#eca3a9"/>
  <circle cx="455.20" cy="109.92" r="10.62" fill="#eca3a9"/>
  <circle cx="56.80" cy="136.48" r="10.62" fill="#eca3a9"/>
  <circle cx="83.36" cy="136.48" r="10.62" fill="#eca3a9"/>
  <circle cx="109.92" cy="136.48" r="10.62" fill="#eca3a9"/>
  <circle cx="136.48" cy="136.48" r="10.62" fill="#eca3a9"/>
  <circle cx="163.04" cy="136.48" r="10.62" fill="#eca3a9"/>
  <circle cx="189.60" cy="136.48" r="10.62" fill="#eca3a9"/>
  <circle cx="216.16" cy="136.48" r="10.62" fill="#eca3a9"/>
  <circle cx="242.72" cy="136.48" r="10.62" fill="#eca3a9"/>
  <circle cx="269.28" cy="136.48" r="10.62" fill="#ffba78"/>
  <circle cx="295.84" cy="136.48" r="10.62" fill="#ffba78"/>
  <circle cx="322.40" cy="136.48" r="10.62" fill="#ffba78"/>
  <circle cx="348.96" cy="136.48" r="10.62" fill="#eca3a9"/>
  <circle cx="375.52" cy="136.48" r="10.62" fill="#eca3a9"/>
  <circle cx="402.08" cy="136.48" r="10.62" fill="#eca3a9"/>
  <circle cx="428.64" cy="136.48" r="10.62" fill="#eca3a9"/>
  <circle cx="455.20" cy="136.48" r="10.62" fill="#eca3a9"/>
  <circle cx="56.80" cy="163.04" r="10.62" fill="#e888a2"/>
  <circle cx="83.36" cy="163.04" r="10.62" fill="#e888a2"/>
  <circle cx="109.92" cy="163.04" r="10.62" fill="#e888a2"/>
  <circle cx="136.48" cy="163.04" r="10.62" fill="#e888a2"/>
  <circle cx="163.04" cy="163.04" r="10.62" fill="#e888a2"/>
  <circle cx="189.60" cy="163.04" r="10.62" fill="#e888a2"/>
  <circle cx="216.16" cy="163.04" r="10.62" fill="#eca3a9"/>
  <circle cx="242.72" cy="163.04" r="10.62" fill="#ffba78"/>
  <circle cx="269.28" cy="163.04" r="10.62" fill="#ffba78"/>
  <circle cx="295.84" cy="163.04" r="10.62" fill="#ffba78"/>
  <circle cx="322.40" cy="163.04" r="10.62" fill="#ffba78"/>
  <circle cx="348.96" cy="163.04" r="10.62" fill="#ffba78"/>
  <circle cx="375.52" cy="163.04" r="10.62" fill="#eca3a9"/>
  <circle cx="402.08" cy="163.04" r="10.62" fill="#eca3a9"/>
  <circle cx="428.64" cy="163.04" r="10.62" fill="#eca3a9"/>
  <circle cx="455.20" cy="163.04" r="10.62" fill="#e888a2"/>
  <circle cx="56.80" cy="189.60" r="10.62" fill="#e888a2"/>
  <circle cx="83.36" cy="189.60" r="10.62" fill="#e888a2"/>
  <circle cx="109.92" cy="189.60" r="10.62" fill="#e888a2"/>
  <circle cx="136.48" cy="189.60" r="10.62" fill="#e888a2"/>
  <circle cx="163.04" cy="189.60" r="10.62" fill="#e888a2"/>
  <circle cx="189.60" cy="189.60" r="10.62" fill="#e888a2"/>
  <circle cx="216.16" cy="189.60" r="10.62" fill="#e888a2"/>
  <circle cx="242.72" cy="189.60" r="10.62" fill="#ffba78"/>
  <circle cx="269.28" cy="189.60" r="10.62" fill="#ffba78"/>
  <circle cx="295.84" cy="189.60" r="10.62" fill="#14161a"/>
  <circle cx="322.40" cy="189.60" r="10.62" fill="#ffba78"/>
  <circle cx="348.96" cy="189.60" r="10.62" fill="#ffba78"/>
  <circle cx="375.52" cy="189.60" r="10.62" fill="#e888a2"/>
  <circle cx="402.08" cy="189.60" r="10.62" fill="#e888a2"/>
  <circle cx="428.64" cy="189.60" r="10.62" fill="#e888a2"/>
  <circle cx="455.20" cy="189.60" r="10.62" fill="#e888a2"/>
  <circle cx="56.80" cy="216.16" r="10.62" fill="#e888a2"/>
  <circle cx="83.36" cy="216.16" r="10.62" fill="#e888a2"/>
  <circle cx="109.92" cy="216.16" r="10.62" fill="#e888a2"/>
  <circle cx="136.48" cy="216.16" r="10.62" fill="#e888a2"/>
  <circle cx="163.04" cy="216.16" r="10.62" fill="#e888a2"/>
  <circle cx="189.60" cy="216.16" r="10.62" fill="#e888a2"/>
  <circle cx="216.16" cy="216.16" r="10.62" fill="#e888a2"/>
  <circle cx="242.72" cy="216.16" r="10.62" fill="#ffba78"/>
  <circle cx="269.28" cy="216.16" r="10.62" fill="#ffba78"/>
  <circle cx="295.84" cy="216.16" r="10.62" fill="#ffba78"/>
  <circle cx="322.40" cy="216.16" r="10.62" fill="#ffba78"/>
  <circle cx="348.96" cy="216.16" r="10.62" fill="#ffba78"/>
  <circle cx="375.52" cy="216.16" r="10.62" fill="#e888a2"/>
  <circle cx="402.08" cy="216.16" r="10.62" fill="#e888a2"/>
  <circle cx="428.64" cy="216.16" r="10.62" fill="#e888a2"/>
  <circle cx="455.20" cy="216.16" r="10.62" fill="#e888a2"/>
  <circle cx="56.80" cy="242.72" r="10.62" fill="#e888a2"/>
  <circle cx="83.36" cy="242.72" r="10.62" fill="#e888a2"/>
  <circle cx="109.92" cy="242.72" r="10.62" fill="#e888a2"/>
  <circle cx="136.48" cy="242.72" r="10.62" fill="#e888a2"/>
  <circle cx="163.04" cy="242.72" r="10.62" fill="#e888a2"/>
  <circle cx="189.60" cy="242.72" r="10.62" fill="#e888a2"/>
  <circle cx="216.16" cy="242.72" r="10.62" fill="#e888a2"/>
  <circle cx="242.72" cy="242.72" r="10.62" fill="#e888a2"/>
  <circle cx="269.28" cy="242.72" r="10.62" fill="#ffba78"/>
  <circle cx="295.84" cy="242.72" r="10.62" fill="#ffba78"/>
  <circle cx="322.40" cy="242.72" r="10.62" fill="#ffba78"/>
  <circle cx="348.96" cy="242.72" r="10.62" fill="#e888a2"/>
  <circle cx="375.52" cy="242.72" r="10.62" fill="#e888a2"/>
  <circle cx="402.08" cy="242.72" r="10.62" fill="#e888a2"/>
  <circle cx="428.64" cy="242.72" r="10.62" fill="#e888a2"/>
  <circle cx="455.20" cy="242.72" r="10.62" fill="#e888a2"/>
  <circle cx="56.80" cy="269.28" r="10.62" fill="#6a659b"/>
  <circle cx="83.36" cy="269.28" r="10.62" fill="#6a659b"/>
  <circle cx="109.92" cy="269.28" r="10.62" fill="#6a659b"/>
  <circle cx="136.48" cy="269.28" r="10.62" fill="#6a659b"/>
  <circle cx="163.04" cy="269.28" r="10.62" fill="#e888a2"/>
  <circle cx="189.60" cy="269.28" r="10.62" fill="#e888a2"/>
  <circle cx="216.16" cy="269.28" r="10.62" fill="#e888a2"/>
  <circle cx="242.72" cy="269.28" r="10.62" fill="#e888a2"/>
  <circle cx="269.28" cy="269.28" r="10.62" fill="#e888a2"/>
  <circle cx="295.84" cy="269.28" r="10.62" fill="#e888a2"/>
  <circle cx="322.40" cy="269.28" r="10.62" fill="#e888a2"/>
  <circle cx="348.96" cy="269.28" r="10.62" fill="#e888a2"/>
  <circle cx="375.52" cy="269.28" r="10.62" fill="#e888a2"/>
  <circle cx="402.08" cy="269.28" r="10.62" fill="#e888a2"/>
  <circle cx="428.64" cy="269.28" r="10.62" fill="#e888a2"/>
  <circle cx="455.20" cy="269.28" r="10.62" fill="#e888a2"/>
  <circle cx="56.80" cy="295.84" r="10.62" fill="#505285"/>
  <circle cx="83.36" cy="295.84" r="10.62" fill="#505285"/>
  <circle cx="109.92" cy="295.84" r="10.62" fill="#505285"/>
  <circle cx="136.48" cy="295.84" r="10.62" fill="#6a659b"/>
  <circle cx="163.04" cy="295.84" r="10.62" fill="#6a659b"/>
  <circle cx="189.60" cy="295.84" r="10.62" fill="#6a659b"/>
  <circle cx="216.16" cy="295.84" r="10.62" fill="#6a659b"/>
  <circle cx="242.72" cy="295.84" r="10.62" fill="#6a659b"/>
  <circle cx="269.28" cy="295.84" r="10.62" fill="#6a659b"/>
  <circle cx="295.84" cy="295.84" r="10.62" fill="#6a659b"/>
  <circle cx="322.40" cy="295.84" r="10.62" fill="#6a659b"/>
  <circle cx="348.96" cy="295.84" r="10.62" fill="#6a659b"/>
  <circle cx="375.52" cy="295.84" r="10.62" fill="#e888a2"/>
  <circle cx="402.08" cy="295.84" r="10.62" fill="#e888a2"/>
  <circle cx="428.64" cy="295.84" r="10.62" fill="#e888a2"/>
  <circle cx="455.20" cy="295.84" r="10.62" fill="#e888a2"/>
  <circle cx="56.80" cy="322.40" r="10.62" fill="#505285"/>
  <circle cx="83.36" cy="322.40" r="10.62" fill="#505285"/>
  <circle cx="109.92" cy="322.40" r="10.62" fill="#505285"/>
  <circle cx="136.48" cy="322.40" r="10.62" fill="#505285"/>
  <circle cx="163.04" cy="322.40" r="10.62" fill="#505285"/>
  <circle cx="189.60" cy="322.40" r="10.62" fill="#6a659b"/>
  <circle cx="216.16" cy="322.40" r="10.62" fill="#6a659b"/>
  <circle cx="242.72" cy="322.40" r="10.62" fill="#6a659b"/>
  <circle cx="269.28" cy="322.40" r="10.62" fill="#6a659b"/>
  <circle cx="295.84" cy="322.40" r="10.62" fill="#6a659b"/>
  <circle cx="322.40" cy="322.40" r="10.62" fill="#6a659b"/>
  <circle cx="348.96" cy="322.40" r="10.62" fill="#6a659b"/>
  <circle cx="375.52" cy="322.40" r="10.62" fill="#6a659b"/>
  <circle cx="402.08" cy="322.40" r="10.62" fill="#6a659b"/>
  <circle cx="428.64" cy="322.40" r="10.62" fill="#6a659b"/>
  <circle cx="455.20" cy="322.40" r="10.62" fill="#6a659b"/>
  <circle cx="56.80" cy="348.96" r="10.62" fill="#505285"/>
  <circle cx="83.36" cy="348.96" r="10.62" fill="#505285"/>
  <circle cx="109.92" cy="348.96" r="10.62" fill="#505285"/>
  <circle cx="136.48" cy="348.96" r="10.62" fill="#505285"/>
  <circle cx="163.04" cy="348.96" r="10.62" fill="#505285"/>
  <circle cx="189.60" cy="348.96" r="10.62" fill="#505285"/>
  <circle cx="216.16" cy="348.96" r="10.62" fill="#505285"/>
  <circle cx="242.72" cy="348.96" r="10.62" fill="#505285"/>
  <circle cx="269.28" cy="348.96" r="10.62" fill="#505285"/>
  <circle cx="295.84" cy="348.96" r="10.62" fill="#6a659b"/>
  <circle cx="322.40" cy="348.96" r="10.62" fill="#6a659b"/>
  <circle cx="348.96" cy="348.96" r="10.62" fill="#6a659b"/>
  <circle cx="375.52" cy="348.96" r="10.62" fill="#6a659b"/>
  <circle cx="402.08" cy="348.96" r="10.62" fill="#6a659b"/>
  <circle cx="428.64" cy="348.96" r="10.62" fill="#6a659b"/>
  <circle cx="455.20" cy="348.96" r="10.62" fill="#6a659b"/>
  <circle cx="56.80" cy="375.52" r="10.62" fill="#505285"/>
  <circle cx="83.36" cy="375.52" r="10.62" fill="#505285"/>
  <circle cx="109.92" cy="375.52" r="10.62" fill="#505285"/>
  <circle cx="136.48" cy="375.52" r="10.62" fill="#505285"/>
  <circle cx="163.04" cy="375.52" r="10.62" fill="#505285"/>
  <circle cx="189.60" cy="375.52" r="10.62" fill="#505285"/>
  <circle cx="216.16" cy="375.52" r="10.62" fill="#505285"/>
  <circle cx="242.72" cy="375.52" r="10.62" fill="#505285"/>
  <circle cx="269.28" cy="375.52" r="10.62" fill="#505285"/>
  <circle cx="295.84" cy="375.52" r="10.62" fill="#505285"/>
  <circle cx="322.40" cy="375.52" r="10.62" fill="#505285"/>
  <circle cx="348.96" cy="375.52" r="10.62" fill="#505285"/>
  <circle cx="375.52" cy="375.52" r="10.62" fill="#6a659b"/>
  <circle cx="402.08" cy="375.52" r="10.62" fill="#505285"/>
  <circle cx="428.64" cy="375.52" r="10.62" fill="#505285"/>
  <circle cx="455.20" cy="375.52" r="10.62" fill="#505285"/>
  <circle cx="56.80" cy="402.08" r="10.62" fill="#505285"/>
  <circle cx="83.36" cy="402.08" r="10.62" fill="#505285"/>
  <circle cx="109.92" cy="402.08" r="10.62" fill="#505285"/>
  <circle cx="136.48" cy="402.08" r="10.62" fill="#505285"/>
  <circle cx="163.04" cy="402.08" r="10.62" fill="#505285"/>
  <circle cx="189.60" cy="402.08" r="10.62" fill="#505285"/>
  <circle cx="216.16" cy="402.08" r="10.62" fill="#505285"/>
  <circle cx="242.72" cy="402.08" r="10.62" fill="#505285"/>
  <circle cx="269.28" cy="402.08" r="10.62" fill="#505285"/>
  <circle cx="295.84" cy="402.08" r="10.62" fill="#505285"/>
  <circle cx="322.40" cy="402.08" r="10.62" fill="#505285"/>
  <circle cx="348.96" cy="402.08" r="10.62" fill="#505285"/>
  <circle cx="375.52" cy="402.08" r="10.62" fill="#505285"/>
  <circle cx="402.08" cy="402.08" r="10.62" fill="#505285"/>
  <circle cx="428.64" cy="402.08" r="10.62" fill="#505285"/>
  <circle cx="455.20" cy="402.08" r="10.62" fill="#505285"/>
  <circle cx="56.80" cy="428.64" r="10.62" fill="#6a659b"/>
  <circle cx="83.36" cy="428.64" r="10.62" fill="#505285"/>
  <circle cx="109.92" cy="428.64" r="10.62" fill="#6a659b"/>
  <circle cx="136.48" cy="428.64" r="10.62" fill="#6a659b"/>
  <circle cx="163.04" cy="428.64" r="10.62" fill="#6a659b"/>
  <circle cx="189.60" cy="428.64" r="10.62" fill="#505285"/>
  <circle cx="216.16" cy="428.64" r="10.62" fill="#505285"/>
  <circle cx="242.72" cy="428.64" r="10.62" fill="#505285"/>
  <circle cx="269.28" cy="428.64" r="10.62" fill="#505285"/>
  <circle cx="295.84" cy="428.64" r="10.62" fill="#505285"/>
  <circle cx="322.40" cy="428.64" r="10.62" fill="#505285"/>
  <circle cx="348.96" cy="428.64" r="10.62" fill="#505285"/>
  <circle cx="375.52" cy="428.64" r="10.62" fill="#505285"/>
  <circle cx="402.08" cy="428.64" r="10.62" fill="#6a659b"/>
  <circle cx="428.64" cy="428.64" r="10.62" fill="#505285"/>
  <circle cx="455.20" cy="428.64" r="10.62" fill="#505285"/>
  <circle cx="56.80" cy="455.20" r="10.62" fill="#6a659b"/>
  <circle cx="83.36" cy="455.20" r="10.62" fill="#505285"/>
  <circle cx="109.92" cy="455.20" r="10.62" fill="#6a659b"/>
  <circle cx="136.48" cy="455.20" r="10.62" fill="#6a659b"/>
  <circle cx="163.04" cy="455.20" r="10.62" fill="#6a659b"/>
  <circle cx="189.60" cy="455.20" r="10.62" fill="#6a659b"/>
  <circle cx="216.16" cy="455.20" r="10.62" fill="#6a659b"/>
  <circle cx="242.72" cy="455.20" r="10.62" fill="#505285"/>
  <circle cx="269.28" cy="455.20" r="10.62" fill="#505285"/>
  <circle cx="295.84" cy="455.20" r="10.62" fill="#6a659b"/>
  <circle cx="322.40" cy="455.20" r="10.62" fill="#6a659b"/>
  <circle cx="348.96" cy="455.20" r="10.62" fill="#6a659b"/>
  <circle cx="375.52" cy="455.20" r="10.62" fill="#6a659b"/>
  <circle cx="402.08" cy="455.20" r="10.62" fill="#6a659b"/>
  <circle cx="428.64" cy="455.20" r="10.62" fill="#505285"/>
  <circle cx="455.20" cy="455.20" r="10.62" fill="#505285"/>
</svg>